<svg xmlns="http://www.w3.org/2000/svg" viewBox="0 0 128 128" role="img" aria-label="文件夹收藏">
  <defs>
    <linearGradient id="bg" x1="18" y1="12" x2="112" y2="116" gradientUnits="userSpaceOnUse">
      <stop stop-color="#fbbf24"/>
      <stop offset="0.62" stop-color="#2563eb"/>
      <stop offset="1" stop-color="#1e3a8a"/>
    </linearGradient>
    <linearGradient id="folder" x1="25" y1="35" x2="103" y2="98" gradientUnits="userSpaceOnUse">
      <stop stop-color="#fff7ed"/>
      <stop offset="1" stop-color="#fed7aa"/>
    </linearGradient>
  </defs>
  <rect x="10" y="10" width="108" height="108" rx="30" fill="url(#bg)"/>
  <path d="M25 43c0-5 4-9 9-9h22c4 0 7 2 10 5l6 7h22c5 0 9 4 9 9v31c0 7-5 12-12 12H37c-7 0-12-5-12-12V43z" fill="url(#folder)"/>
  <path d="M25 56h78v31c0 6-5 11-11 11H36c-6 0-11-5-11-11V56z" fill="#ffedd5" opacity="0.94"/>
  <path d="M49 75h30M49 86h20" stroke="#1d4ed8" stroke-width="7" stroke-linecap="round"/>
  <circle cx="90" cy="38" r="10" fill="#22c55e" stroke="#eff6ff" stroke-width="5"/>
</svg>
